<svg width="51" height="66" viewBox="0 0 51 66" fill="none" xmlns="http://www.w3.org/2000/svg">
    <path d="M42.3731 26.9642C44.8555 29.0186 46.8246 31.394 48.2798 34.0906C49.735 36.7872 50.4627 39.7189 50.4627 42.8863C50.4627 46.0536 49.6923 49.0497 48.1514 51.8746C46.6106 54.6994 44.4919 57.1606 41.7954 59.2578C39.0989 61.355 35.953 63.0028 32.3577 64.2012C28.7624 65.3996 24.9103 65.9989 20.8014 65.9989C16.6924 65.9989 12.8615 65.3996 9.30921 64.2012C5.75692 63.0028 2.65339 61.3763 -7.62939e-05 59.3219L7.06214 32.7422C3.29567 29.2326 1.41237 25.1234 1.41237 20.4154C1.41237 17.5906 2.16135 14.9368 3.65944 12.4544C5.15753 9.97197 7.19055 7.81054 9.75863 5.97C12.3267 4.12945 15.3228 2.67438 18.7469 1.60439C22.1711 0.534403 25.8091 -0.000656128 29.6612 -0.000656128C33.1709 -0.000656128 36.5097 0.427313 39.6768 1.28338C42.8438 2.13945 45.669 3.42349 48.1514 5.13551L42.3731 26.9642Z" fill="#EE4950"/>
</svg>
