<svg width="32" height="32" viewBox="0 0 32 32" fill="none" xmlns="http://www.w3.org/2000/svg">
    <path d="M16 22C17.6667 22 19.0835 21.4169 20.2507 20.2507C21.4169 19.0836 22 17.6667 22 16C22 14.3333 21.4169 12.9164 20.2507 11.7493C19.0835 10.5831 17.6667 10 16 10C14.3333 10 12.9164 10.5831 11.7493 11.7493C10.5831 12.9164 9.99999 14.3333 9.99999 16C9.99999 17.6667 10.5831 19.0836 11.7493 20.2507C12.9164 21.4169 14.3333 22 16 22ZM16 17.3333C15.6222 17.3333 15.3058 17.2053 15.0507 16.9493C14.7947 16.6942 14.6667 16.3778 14.6667 16C14.6667 15.6222 14.7947 15.3053 15.0507 15.0493C15.3058 14.7942 15.6222 14.6667 16 14.6667C16.3778 14.6667 16.6947 14.7942 16.9507 15.0493C17.2058 15.3053 17.3333 15.6222 17.3333 16C17.3333 16.3778 17.2058 16.6942 16.9507 16.9493C16.6947 17.2053 16.3778 17.3333 16 17.3333ZM16 29.3333C14.1555 29.3333 12.4222 28.9831 10.8 28.2827C9.17777 27.5831 7.76666 26.6333 6.56666 25.4333C5.36666 24.2333 4.41688 22.8222 3.71732 21.2C3.01688 19.5778 2.66666 17.8444 2.66666 16C2.66666 14.1556 3.01688 12.4222 3.71732 10.8C4.41688 9.17778 5.36666 7.76667 6.56666 6.56667C7.76666 5.36667 9.17777 4.41645 10.8 3.716C12.4222 3.01645 14.1555 2.66667 16 2.66667C17.8444 2.66667 19.5778 3.01645 21.2 3.716C22.8222 4.41645 24.2333 5.36667 25.4333 6.56667C26.6333 7.76667 27.5831 9.17778 28.2827 10.8C28.9831 12.4222 29.3333 14.1556 29.3333 16C29.3333 17.8444 28.9831 19.5778 28.2827 21.2C27.5831 22.8222 26.6333 24.2333 25.4333 25.4333C24.2333 26.6333 22.8222 27.5831 21.2 28.2827C19.5778 28.9831 17.8444 29.3333 16 29.3333Z"
          fill="currentColor"/>
</svg>
