<svg width="32" height="32" viewBox="0 0 32 32" fill="none" xmlns="http://www.w3.org/2000/svg">
<path d="M3.86669 20.1667L15.0667 8.93332C15.2 8.79998 15.3445 8.70576 15.5 8.65065C15.6556 8.59465 15.8222 8.56665 16 8.56665C16.1778 8.56665 16.3445 8.59465 16.5 8.65065C16.6556 8.70576 16.8 8.79998 16.9334 8.93332L28.1667 20.1667C28.4778 20.4778 28.6334 20.8667 28.6334 21.3333C28.6334 21.8 28.4667 22.2 28.1334 22.5333C27.8 22.8666 27.4111 23.0333 26.9667 23.0333C26.5223 23.0333 26.1334 22.8666 25.8 22.5333L16 12.7333L6.20003 22.5333C5.88892 22.8444 5.50581 23 5.05069 23C4.59469 23 4.20003 22.8333 3.86669 22.5C3.53336 22.1667 3.36669 21.7778 3.36669 21.3333C3.36669 20.8889 3.53336 20.5 3.86669 20.1667Z" fill="white"/>
</svg>
