<svg width="21" height="19" viewBox="0 0 21 19" fill="none" xmlns="http://www.w3.org/2000/svg">
<path d="M10.4684 18.0997C9.85324 17.5541 9.15795 16.9866 8.42259 16.3829H8.41305C5.82358 14.2655 2.88883 11.8696 1.59266 8.9988C1.16682 8.08483 0.941147 7.09043 0.930736 6.08218C0.927892 4.69873 1.48276 3.37251 2.46994 2.40328C3.45713 1.43404 4.7933 0.903599 6.17647 0.931836C7.30251 0.933614 8.40431 1.25906 9.35061 1.86939C9.76642 2.13928 10.1426 2.46574 10.4684 2.83937C10.796 2.4672 11.1723 2.14093 11.5872 1.86939C12.5331 1.25893 13.6346 0.933475 14.7604 0.931836C16.1435 0.903599 17.4797 1.43404 18.4669 2.40328C19.4541 3.37251 20.009 4.69873 20.0061 6.08218C19.9964 7.09205 19.7707 8.08814 19.3442 9.00357C18.048 11.8744 15.1142 14.2693 12.5247 16.3829L12.5152 16.3905C11.7789 16.9904 11.0846 17.5579 10.4694 18.1073L10.4684 18.0997ZM6.17647 2.83937C5.28804 2.82825 4.43114 3.16827 3.79205 3.78551C3.17628 4.39035 2.83213 5.21907 2.8382 6.08218C2.84908 6.81706 3.01552 7.5413 3.32661 8.20718C3.93846 9.44584 4.76404 10.5668 5.7654 11.5187C6.71058 12.4724 7.79787 13.3957 8.73829 14.172C8.99867 14.3866 9.26382 14.6031 9.52896 14.8196L9.69587 14.956C9.95053 15.164 10.2138 15.3795 10.4684 15.5912L10.4808 15.5798L10.4865 15.575H10.4923L10.5009 15.5684H10.5056H10.5104L10.5276 15.554L10.5667 15.5226L10.5733 15.5169L10.5838 15.5092H10.5896L10.5981 15.5016L11.2314 14.9818L11.3974 14.8454C11.6654 14.627 11.9305 14.4105 12.1909 14.1959C13.1313 13.4195 14.2196 12.4972 15.1648 11.5387C16.1663 10.5874 16.9919 9.46664 17.6036 8.22816C17.9203 7.55652 18.0891 6.82469 18.0986 6.08218C18.1025 5.22173 17.7586 4.3962 17.1448 3.79314C16.5069 3.17311 15.6499 2.83029 14.7604 2.83937C13.6749 2.83015 12.6372 3.28513 11.9086 4.08976L10.4684 5.74932L9.02823 4.08976C8.29962 3.28513 7.26193 2.83015 6.17647 2.83937Z" fill="currentColor"/> <!-- #7A8580 -->
</svg>
