<svg width="20" height="20" viewBox="0 0 20 20" fill="none" xmlns="http://www.w3.org/2000/svg">
<path d="M0.834839 19.2924V3.54242C0.834839 3.06117 1.00634 2.64904 1.34934 2.30604C1.69176 1.96363 2.10359 1.79242 2.58484 1.79242H12.2098C12.6911 1.79242 13.1032 1.96363 13.4462 2.30604C13.7886 2.64904 13.9598 3.06117 13.9598 3.54242V3.91429C13.1578 4.26429 12.5196 4.80009 12.0453 5.52167C11.5717 6.24384 11.3348 7.04242 11.3348 7.91742C11.3348 8.79242 11.5717 9.591 12.0453 10.3132C12.5196 11.0348 13.1578 11.5705 13.9598 11.9205V14.0424C13.9598 14.5237 13.7886 14.9358 13.4462 15.2788C13.1032 15.6212 12.6911 15.7924 12.2098 15.7924H4.33484L0.834839 19.2924ZM4.33484 12.2924H7.83484V10.5424H4.33484V12.2924ZM15.7098 10.5424C14.9807 10.5424 14.3609 10.2872 13.8505 9.77679C13.34 9.26638 13.0848 8.64659 13.0848 7.91742C13.0848 7.17367 13.34 6.55009 13.8505 6.04667C14.3609 5.54384 14.9807 5.29242 15.7098 5.29242C15.8703 5.29242 16.0234 5.307 16.1692 5.33617C16.315 5.36534 16.4536 5.40179 16.5848 5.44554V0.917419H20.0848V2.66742H18.3348V7.91742C18.3348 8.64659 18.0796 9.26638 17.5692 9.77679C17.0588 10.2872 16.439 10.5424 15.7098 10.5424ZM4.33484 9.66742H10.4598V7.91742H4.33484V9.66742ZM4.33484 7.04242H10.4598V5.29242H4.33484V7.04242Z" fill="currentColor"/>
</svg>
