<svg width="17" height="5" viewBox="0 0 17 5" fill="none" xmlns="http://www.w3.org/2000/svg">
<path d="M14.3418 4.42328C13.2883 4.42328 12.4342 3.56925 12.4342 2.51574C12.4342 1.46224 13.2883 0.608208 14.3418 0.608208C15.3953 0.608208 16.2493 1.46224 16.2493 2.51574C16.2493 3.02165 16.0483 3.50684 15.6906 3.86457C15.3329 4.22231 14.8477 4.42328 14.3418 4.42328ZM8.61916 4.42328C7.56565 4.42328 6.71162 3.56925 6.71162 2.51574C6.71162 1.46224 7.56565 0.608208 8.61916 0.608208C9.67266 0.608208 10.5267 1.46224 10.5267 2.51574C10.5267 3.02165 10.3257 3.50684 9.96799 3.86457C9.61025 4.22231 9.12507 4.42328 8.61916 4.42328ZM2.89655 4.42328C1.84305 4.42328 0.989014 3.56925 0.989014 2.51574C0.989014 1.46224 1.84305 0.608208 2.89655 0.608208C3.95005 0.608208 4.80408 1.46224 4.80408 2.51574C4.80408 3.02165 4.60311 3.50684 4.24538 3.86457C3.88765 4.22231 3.40246 4.42328 2.89655 4.42328Z" fill="currentColor"/> <!-- #AFB6B3 -->
</svg>
