<svg width="314" height="61" viewBox="0 0 314 61" fill="none" xmlns="http://www.w3.org/2000/svg">
    <path
            d="M38.9639 24.7953C41.2466 26.6844 43.0572 28.8686 44.3953 31.3483C45.7334 33.8279 46.4025 36.5238 46.4025 39.4363C46.4025 42.3488 45.6941 45.1037 44.2772 47.7013C42.8604 50.2989 40.9122 52.5621 38.4326 54.4905C35.9531 56.419 33.0603 57.9342 29.7543 59.0362C26.4483 60.1382 22.9061 60.6892 19.1278 60.6892C15.3494 60.6892 11.8267 60.1382 8.56027 59.0362C5.29379 57.9342 2.43997 56.4386 0 54.5494L6.494 30.1084C3.03057 26.8811 1.2988 23.1026 1.2988 18.7734C1.2988 16.1758 1.98752 13.7356 3.36507 11.4529C4.74262 9.17023 6.61207 7.18271 8.97352 5.49026C11.335 3.7978 14.09 2.45981 17.2386 1.47591C20.3872 0.492009 23.7326 0 27.2748 0C30.5021 0 33.5722 0.393535 36.4844 1.18073C39.3967 1.96792 41.9945 3.14864 44.2772 4.72291L38.9639 24.7953Z"
            fill="currentColor"
    />
    <path
            d="M59.77 43.7901C59.8638 42.7573 60.1846 41.7246 60.7323 40.6919C61.2799 39.6591 61.9293 38.8142 62.6804 38.157C66.029 40.1912 69.2054 41.2082 72.2097 41.2082C73.5241 41.2082 74.4864 40.9109 75.0967 40.3163C75.7069 39.7217 76.0121 38.9863 76.0121 38.11C76.0121 36.6392 75.0263 35.4813 73.0547 34.6363L67.5155 32.2892C65.3561 31.319 63.6975 30.1533 62.5396 28.7919C61.3817 27.4306 60.8027 25.7016 60.8027 23.6048C60.8027 22.1652 61.0922 20.8508 61.6711 19.6616C62.2501 18.4724 63.0638 17.4397 64.1121 16.5634C65.1605 15.6872 66.4045 15.0065 67.8441 14.5214C69.2836 14.0363 70.8797 13.7938 72.6322 13.7938C76.1373 13.7938 79.6736 14.6857 83.2412 16.4695C83.0847 18.8792 82.2398 20.7569 80.7063 22.1026C77.5142 20.5692 74.6977 19.8025 72.2567 19.8025C71.0049 19.8025 70.066 20.0841 69.4401 20.6474C68.8142 21.2107 68.5013 21.8523 68.5013 22.5721C68.5013 23.7926 69.4245 24.7784 71.2709 25.5294L76.904 27.9235C79.2824 28.925 81.0584 30.208 82.232 31.7728C83.4055 33.3375 83.9923 35.1527 83.9923 37.2181C83.9923 38.689 83.7263 40.0347 83.1943 41.2552C82.6623 42.4757 81.8721 43.5319 80.8237 44.4238C79.7753 45.3157 78.4687 46.012 76.904 46.5128C75.3392 47.0135 73.5085 47.2638 71.4117 47.2638C67.3434 47.2638 63.4628 46.1059 59.77 43.7901V43.7901ZM96.1504 37.0773L96.1035 40.4572V40.5041C97.543 40.4415 98.701 40.4102 99.5772 40.4102H110.468C110.468 41.5681 110.421 42.46 110.327 43.0859C109.952 45.4957 108.355 46.7005 105.539 46.7005H93.0522C91.7065 46.7005 90.6503 46.3093 89.8836 45.527C89.1169 44.7446 88.7335 43.6806 88.7335 42.3349V14.8265L89.0621 14.4979H109.294C109.482 15.4055 109.576 16.3913 109.576 17.4553C109.576 18.5194 109.357 19.6303 108.919 20.7882H96.1035L96.1504 24.1681V27.4541C96.9641 27.4228 98.0281 27.4071 99.3425 27.4071H106.525C106.806 28.2834 106.947 29.2848 106.947 30.4115C106.947 31.5381 106.806 32.5708 106.525 33.5097H96.1504V37.0773V37.0773ZM127.555 40.2225H135.676C135.676 41.4743 135.598 42.5461 135.441 43.438C135.285 44.3299 134.784 45.0967 133.939 45.7382C133.094 46.3797 131.983 46.7005 130.606 46.7005H119.997C118.652 46.7005 117.588 46.3093 116.805 45.527C116.023 44.7446 115.632 43.6806 115.632 42.3349V14.4979L115.96 14.1693H118.73C121.672 14.1693 123.142 15.7654 123.142 18.9575V40.4102C124.519 40.285 125.99 40.2225 127.555 40.2225V40.2225ZM147.646 20.8821L147.693 24.5436V27.501H157.739C157.989 28.4399 158.115 29.4648 158.115 30.5758C158.115 31.6867 157.989 32.7116 157.739 33.6505H147.693V46.5597C146.692 46.7475 145.44 46.8414 143.938 46.8414C142.436 46.8414 141.184 46.7475 140.183 46.5597V14.7796L140.511 14.4979H160.603C160.79 15.2803 160.884 16.2583 160.884 17.4319C160.884 18.6054 160.563 19.4739 159.922 20.0372C159.28 20.6005 158.271 20.8821 156.894 20.8821H147.646V20.8821ZM162.433 43.7901C162.527 42.7573 162.848 41.7246 163.396 40.6919C163.943 39.6591 164.593 38.8142 165.344 38.157C168.692 40.1912 171.869 41.2082 174.873 41.2082C176.187 41.2082 177.15 40.9109 177.76 40.3163C178.37 39.7217 178.675 38.9863 178.675 38.11C178.675 36.6392 177.69 35.4813 175.718 34.6363L170.179 32.2892C168.019 31.319 166.361 30.1533 165.203 28.7919C164.045 27.4306 163.466 25.7016 163.466 23.6048C163.466 22.1652 163.755 20.8508 164.334 19.6616C164.913 18.4724 165.727 17.4397 166.775 16.5634C167.824 15.6872 169.068 15.0065 170.507 14.5214C171.947 14.0363 173.543 13.7938 175.296 13.7938C178.801 13.7938 182.337 14.6857 185.905 16.4695C185.748 18.8792 184.903 20.7569 183.37 22.1026C180.178 20.5692 177.361 19.8025 174.92 19.8025C173.668 19.8025 172.729 20.0841 172.103 20.6474C171.478 21.2107 171.165 21.8523 171.165 22.5721C171.165 23.7926 172.088 24.7784 173.934 25.5294L179.567 27.9235C181.946 28.925 183.722 30.208 184.895 31.7728C186.069 33.3375 186.656 35.1527 186.656 37.2181C186.656 38.689 186.39 40.0347 185.858 41.2552C185.326 42.4757 184.535 43.5319 183.487 44.4238C182.439 45.3157 181.132 46.012 179.567 46.5128C178.003 47.0135 176.172 47.2638 174.075 47.2638C170.007 47.2638 166.126 46.1059 162.433 43.7901V43.7901ZM198.391 37.8284C199.236 40.2694 200.942 41.4899 203.508 41.4899C204.791 41.4899 205.832 41.1691 206.63 40.5276C207.428 39.886 208.054 39.0724 208.507 38.0866C208.961 37.1008 209.266 35.9976 209.423 34.7771C209.579 33.5566 209.657 32.3518 209.657 31.1625C209.657 30.0672 209.618 28.8467 209.54 27.501C209.462 26.1553 209.235 24.8957 208.859 23.7222C208.484 22.5486 207.889 21.5628 207.076 20.7648C206.262 19.9668 205.073 19.5677 203.508 19.5677C202.006 19.5677 200.856 19.9511 200.058 20.7178C199.26 21.4846 198.665 22.4312 198.274 23.5579C197.883 24.6845 197.64 25.8815 197.546 27.149C197.452 28.4164 197.405 29.5352 197.405 30.5053C197.405 31.9449 197.476 33.228 197.617 34.3546C197.758 35.4813 198.016 36.6392 198.391 37.8284V37.8284ZM194.589 44.3065C191.24 41.5212 189.566 36.9365 189.566 30.5523C189.566 27.7983 189.887 25.3808 190.528 23.2997C191.17 21.2186 192.093 19.4739 193.298 18.0656C194.503 16.6573 195.966 15.5933 197.687 14.8735C199.408 14.1537 201.349 13.7938 203.508 13.7938C205.667 13.7938 207.615 14.1537 209.352 14.8735C211.089 15.5933 212.56 16.6651 213.765 18.089C214.97 19.513 215.893 21.2655 216.535 23.3466C217.176 25.4277 217.497 27.8296 217.497 30.5523C217.497 33.275 217.176 35.6769 216.535 37.758C215.893 39.8391 214.97 41.5838 213.765 42.9921C212.56 44.4003 211.089 45.4644 209.352 46.1842C207.615 46.9039 205.667 47.2638 203.508 47.2638C199.94 47.2638 196.967 46.278 194.589 44.3065V44.3065ZM247.681 14.4979V34.7302C247.681 38.7359 246.586 41.8263 244.395 44.0013C242.204 46.1763 239.075 47.2638 235.006 47.2638C230.938 47.2638 227.801 46.1763 225.594 44.0013C223.388 41.8263 222.285 38.7359 222.285 34.7302V14.4979L222.614 14.1693H225.383C228.356 14.1693 229.843 15.7654 229.843 18.9575V34.8241C229.843 37.0147 230.234 38.6421 231.016 39.7061C231.799 40.7701 233.129 41.3021 235.006 41.3021C236.884 41.3021 238.214 40.7701 238.997 39.7061C239.779 38.6421 240.17 37.0147 240.17 34.8241V14.4979C241.14 14.3102 242.392 14.2163 243.926 14.2163C245.428 14.2163 246.679 14.3102 247.681 14.4979V14.4979ZM279.602 14.1693L279.93 14.4979V46.4189C278.679 46.7005 277.2 46.8414 275.494 46.8414C273.789 46.8414 272.279 46.7475 270.964 46.5597L263.594 29.7543C262.718 27.8453 261.826 25.639 260.919 23.1354L260.778 23.1823C261.153 27.7514 261.341 32.43 261.341 37.2181V46.5597C260.371 46.7475 259.197 46.8414 257.82 46.8414C256.444 46.8414 255.286 46.7475 254.347 46.5597V14.6388C255.536 14.3571 256.968 14.2163 258.642 14.2163C260.316 14.2163 261.811 14.3102 263.125 14.4979L270.401 31.2564C271.715 34.3546 272.686 36.7331 273.312 38.3917L273.499 38.2978C273.124 33.9478 272.936 29.3318 272.936 24.4498V18.7228C272.936 17.0954 273.265 15.9297 273.922 15.2256C274.579 14.5214 275.643 14.1693 277.114 14.1693H279.602V14.1693ZM307.767 44.4942C306.766 45.3079 305.452 45.9025 303.824 46.278C302.197 46.6536 300.397 46.8414 298.426 46.8414C297.456 46.8414 296.055 46.8257 294.224 46.7944C292.394 46.7631 290.101 46.7162 287.347 46.6536L287.019 46.325V14.7327L287.347 14.4041C289.162 14.3415 291.048 14.2945 293.004 14.2632C294.96 14.2319 297.018 14.2163 299.177 14.2163C301.837 14.2163 304.059 14.6388 305.843 15.4837C307.627 16.3287 309.05 17.4866 310.114 18.9575C311.178 20.4284 311.93 22.1574 312.368 24.1446C312.806 26.1319 313.025 28.2678 313.025 30.5523C313.025 33.6818 312.665 36.3888 311.945 38.6733C311.225 40.9579 309.833 42.8982 307.767 44.4942V44.4942ZM299.13 40.9735C303.261 40.9735 305.326 37.4998 305.326 30.5523C305.326 23.5735 303.261 20.0841 299.13 20.0841H296.478C296.478 20.0841 295.813 20.0685 294.483 20.0372V41.0205C295.046 40.9892 295.711 40.9735 296.478 40.9735H299.13Z"
            fill="currentColor"
    />
</svg>
